<?xml version="1.0" encoding="utf-8"?>
<!-- Generator: Adobe Illustrator 24.1.1, SVG Export Plug-In . SVG Version: 6.00 Build 0)  -->
<svg version="1.1" id="Layer_1" xmlns="http://www.w3.org/2000/svg" xmlns:xlink="http://www.w3.org/1999/xlink" x="0px" y="0px"
	 viewBox="0 0 575 525" style="enable-background:new 0 0 575 525;" xml:space="preserve">
<style type="text/css">
	.st0{opacity:0.4;}
	.st1{fill:#BABCC0;fill-opacity:0;}
	.st2{opacity:2.439024e-02;fill:#B7B9BD;enable-background:new    ;}
	.st3{opacity:4.878049e-02;fill:#B4B6BA;enable-background:new    ;}
	.st4{opacity:7.317073e-02;fill:#B1B3B7;enable-background:new    ;}
	.st5{opacity:9.756097e-02;fill:#AEB0B4;enable-background:new    ;}
	.st6{opacity:0.122;fill:#ABADB1;enable-background:new    ;}
	.st7{opacity:0.1463;fill:#A8AAAD;enable-background:new    ;}
	.st8{opacity:0.1707;fill:#A5A7AA;enable-background:new    ;}
	.st9{opacity:0.1951;fill:#A2A4A7;enable-background:new    ;}
	.st10{opacity:0.2195;fill:#9FA1A4;enable-background:new    ;}
	.st11{opacity:0.2439;fill:#9C9EA1;enable-background:new    ;}
	.st12{opacity:0.2683;fill:#999B9E;enable-background:new    ;}
	.st13{opacity:0.2927;fill:#96989B;enable-background:new    ;}
	.st14{opacity:0.3171;fill:#939598;enable-background:new    ;}
	.st15{opacity:0.3415;fill:#909295;enable-background:new    ;}
	.st16{opacity:0.3659;fill:#8D8F92;enable-background:new    ;}
	.st17{opacity:0.3902;fill:#8A8C8E;enable-background:new    ;}
	.st18{opacity:0.4146;fill:#87898B;enable-background:new    ;}
	.st19{opacity:0.439;fill:#848688;enable-background:new    ;}
	.st20{opacity:0.4634;fill:#818385;enable-background:new    ;}
	.st21{opacity:0.4878;fill:#7E8082;enable-background:new    ;}
	.st22{opacity:0.5122;fill:#7C7C7F;enable-background:new    ;}
	.st23{opacity:0.5366;fill:#79797C;enable-background:new    ;}
	.st24{opacity:0.561;fill:#767679;enable-background:new    ;}
	.st25{opacity:0.5854;fill:#737376;enable-background:new    ;}
	.st26{opacity:0.6098;fill:#707073;enable-background:new    ;}
	.st27{opacity:0.6341;fill:#6D6D6F;enable-background:new    ;}
	.st28{opacity:0.6585;fill:#6A6A6C;enable-background:new    ;}
	.st29{opacity:0.6829;fill:#676769;enable-background:new    ;}
	.st30{opacity:0.7073;fill:#646466;enable-background:new    ;}
	.st31{opacity:0.7317;fill:#616163;enable-background:new    ;}
	.st32{opacity:0.7561;fill:#5E5E60;enable-background:new    ;}
	.st33{opacity:0.7805;fill:#5B5B5D;enable-background:new    ;}
	.st34{opacity:0.8049;fill:#58585A;enable-background:new    ;}
	.st35{opacity:0.8293;fill:#555557;enable-background:new    ;}
	.st36{opacity:0.8537;fill:#525254;enable-background:new    ;}
	.st37{opacity:0.878;fill:#4F4F50;enable-background:new    ;}
	.st38{opacity:0.9024;fill:#4C4C4D;enable-background:new    ;}
	.st39{opacity:0.9268;fill:#49494A;enable-background:new    ;}
	.st40{opacity:0.9512;fill:#464647;enable-background:new    ;}
	.st41{opacity:0.9756;fill:#434344;enable-background:new    ;}
	.st42{fill:#404041;}
	.st43{fill:url(#SVGID_1_);}
	.st44{fill:url(#SVGID_2_);}
	.st45{fill:url(#SVGID_3_);}
	.st46{fill:url(#SVGID_4_);}
</style>
<g class="st0">
	<path class="st1" d="M312.1,521c-146.1,0-264.6,6.6-264.6,14.7c0,8,118.5,14.7,264.6,14.7s264.6-6.6,264.6-14.7
		C576.7,527.6,458.2,521,312.1,521z"/>
	<path class="st2" d="M312.1,521.3c-143.5,0-259.6,6.4-259.6,14.4c0,7.8,116.3,14.4,259.6,14.4s259.6-6.4,259.6-14.4
		S455.4,521.3,312.1,521.3z"/>
	<path class="st3" d="M312.1,521.3c-140.7,0-254.9,6.4-254.9,14c0,7.8,114.2,14,254.9,14s254.9-6.4,254.9-14
		S452.8,521.3,312.1,521.3z"/>
	<path class="st4" d="M312.1,521.5c-138.1,0-249.9,6.1-249.9,13.7c0,7.6,111.8,13.7,249.9,13.7S562,542.8,562,535.2
		S450.1,521.5,312.1,521.5z"/>
	<path class="st5" d="M312.1,521.5c-135.5,0-245.2,6.1-245.2,13.5c0,7.6,109.7,13.5,245.2,13.5s245.2-6.1,245.2-13.5
		S447.3,521.5,312.1,521.5z"/>
	<path class="st6" d="M312.1,521.7c-132.6,0-240.2,5.9-240.2,13.2s107.6,13.2,240.2,13.2s240.2-5.9,240.2-13.2
		S444.7,521.7,312.1,521.7z"/>
	<path class="st7" d="M312.1,521.7c-130,0-235.5,5.9-235.5,13s105.5,13,235.5,13s235.5-5.9,235.5-13S442.1,521.7,312.1,521.7z"/>
	<path class="st8" d="M312.1,522c-127.4,0-230.5,5.7-230.5,12.8s103.3,12.8,230.5,12.8c127.4,0,230.5-5.7,230.5-12.8
		S439.3,522,312.1,522z"/>
	<path class="st9" d="M312.1,522c-124.6,0-225.8,5.7-225.8,12.5s101,12.5,225.8,12.5c124.6,0,225.8-5.7,225.8-12.5
		S436.7,522,312.1,522z"/>
	<path class="st10" d="M312.1,522.2c-122,0-220.8,5.4-220.8,12.3c0,6.6,98.8,12.1,220.8,12.1s220.8-5.4,220.8-12.1
		C532.9,527.6,434.1,522.2,312.1,522.2z"/>
	<path class="st11" d="M312.1,522.2C192.7,522.2,96,527.6,96,534c0,6.6,96.7,11.8,216.1,11.8s216.1-5.4,216.1-11.8
		S431.2,522.2,312.1,522.2z"/>
	<path class="st12" d="M312.1,522.4c-116.6,0-211.2,5.2-211.2,11.6c0,6.4,94.6,11.6,211.2,11.6s211.2-5.2,211.2-11.6
		S428.6,522.4,312.1,522.4z"/>
	<path class="st13" d="M312.1,522.4c-114,0-206.4,5.2-206.4,11.3c0,6.4,92.5,11.3,206.4,11.3s206.4-5.2,206.4-11.3
		C518.5,527.6,426,522.4,312.1,522.4z"/>
	<path class="st14" d="M312.1,522.4c-111.4,0-201.5,5-201.5,11.1s90.3,11.1,201.5,11.1c111.4,0,201.5-5,201.5-11.1
		C513.5,527.6,423.2,522.4,312.1,522.4z"/>
	<path class="st15" d="M312.1,522.7c-108.5,0-196.7,5-196.7,10.9s88,10.9,196.7,10.9c108.5,0,196.7-5,196.7-10.9
		C508.8,527.4,420.6,522.7,312.1,522.7z"/>
	<path class="st16" d="M312.1,522.7c-105.9,0-191.8,4.7-191.8,10.6S206.1,544,312.1,544s191.8-4.7,191.8-10.6S418,522.7,312.1,522.7
		z"/>
	<path class="st17" d="M312.1,522.9c-103.3,0-187,4.7-187,10.4s83.7,10.4,187,10.4s187-4.7,187-10.4
		C499.1,527.4,415.4,522.9,312.1,522.9z"/>
	<path class="st18" d="M312.1,522.9c-100.5,0-182.1,4.5-182.1,9.9s81.6,9.9,182.1,9.9s182.1-4.5,182.1-9.9S412.6,522.9,312.1,522.9z
		"/>
	<path class="st19" d="M312.1,523.2c-97.9,0-177.3,4.3-177.3,9.7s79.4,9.7,177.3,9.7s177.3-4.5,177.3-9.7
		C489.4,527.4,410,523.2,312.1,523.2z"/>
	<path class="st20" d="M312.1,523.2c-95.3,0-172.4,4.3-172.4,9.5s77.3,9.5,172.4,9.5c95.3,0,172.4-4.3,172.4-9.5
		S407.4,523.2,312.1,523.2z"/>
	<path class="st21" d="M312.1,523.4c-92.5,0-167.6,4-167.6,9.2s75,9.2,167.6,9.2c92.5,0,167.6-4,167.6-9.2
		C479.7,527.4,404.5,523.4,312.1,523.4z"/>
	<path class="st22" d="M312.1,523.4c-89.9,0-162.7,4-162.7,9s72.8,9,162.7,9s162.7-4,162.7-9C474.7,527.4,401.9,523.4,312.1,523.4z"
		/>
	<path class="st23" d="M312.1,523.6c-87.3,0-158,3.8-158,8.7c0,4.7,70.7,8.7,158,8.7s158-3.8,158-8.7
		C470,527.4,399.3,523.6,312.1,523.6z"/>
	<path class="st24" d="M312.1,523.6c-84.4,0-153,3.8-153,8.5s68.6,8.5,153,8.5s153-3.8,153-8.5C465,527.4,396.5,523.6,312.1,523.6z"
		/>
	<path class="st25" d="M312.1,523.9c-81.8,0-148.3,3.5-148.3,8.3c0,4.5,66.4,8.3,148.3,8.3c81.8,0,148.3-3.5,148.3-8.3
		C460.3,527.4,393.9,523.9,312.1,523.9z"/>
	<path class="st26" d="M312.1,523.9c-79.2,0-143.3,3.5-143.3,7.8s64.1,7.8,143.3,7.8s143.3-3.5,143.3-7.8
		C455.4,527.4,391.3,523.9,312.1,523.9z"/>
	<path class="st27" d="M312.1,524.1c-76.4,0-138.6,3.3-138.6,7.6s62,7.6,138.6,7.6c76.4,0,138.6-3.3,138.6-7.6
		C450.6,527.4,388.4,524.1,312.1,524.1z"/>
	<path class="st28" d="M312.1,524.1c-73.8,0-133.6,3.3-133.6,7.3s59.8,7.3,133.6,7.3s133.6-3.3,133.6-7.3
		C445.7,527.4,385.8,524.1,312.1,524.1z"/>
	<path class="st29" d="M312.1,524.3c-71.2,0-128.9,3.1-128.9,7.1s57.7,7.1,128.9,7.1s128.9-3.1,128.9-7.1
		C440.9,527.4,383.2,524.3,312.1,524.3z"/>
	<path class="st30" d="M312.1,524.3c-68.6,0-123.9,3.1-123.9,6.9c0,3.8,55.6,6.9,123.9,6.9S436,535,436,531.2
		S380.4,524.3,312.1,524.3z"/>
	<path class="st31" d="M312.1,524.6c-65.7,0-119.2,2.8-119.2,6.6c0,3.5,53.4,6.6,119.2,6.6c65.7,0,119.2-2.8,119.2-6.6
		C431.2,527.4,377.8,524.6,312.1,524.6z"/>
	<path class="st32" d="M312.1,524.6c-63.1,0-114.2,2.8-114.2,6.4c0,3.5,51.1,6.4,114.2,6.4s114.2-2.8,114.2-6.4
		C426.3,527.4,375.2,524.6,312.1,524.6z"/>
	<path class="st33" d="M312.1,524.8c-60.5,0-109.5,2.6-109.5,6.1c0,3.3,48.9,5.9,109.5,5.9c60.3,0,109.5-2.6,109.5-5.9
		C421.5,527.4,372.4,524.8,312.1,524.8z"/>
	<path class="st34" d="M312.1,524.8c-57.7,0-104.5,2.6-104.5,5.7c0,3.1,46.8,5.7,104.5,5.7s104.5-2.6,104.5-5.7
		C416.6,527.4,369.8,524.8,312.1,524.8z"/>
	<path class="st35" d="M312.1,525c-55.1,0-99.8,2.4-99.8,5.4c0,3.1,44.7,5.4,99.8,5.4s99.8-2.4,99.8-5.4
		C411.8,527.4,367.2,525,312.1,525z"/>
	<path class="st36" d="M312.1,525c-52.5,0-94.8,2.4-94.8,5.2s42.6,5.2,94.8,5.2c52.5,0,94.8-2.4,94.8-5.2
		C406.9,527.4,364.3,525,312.1,525z"/>
	<path class="st37" d="M312.1,525.3c-49.7,0-90.1,2.1-90.1,5c0,2.8,40.2,5,90.1,5c49.7,0,90.1-2.1,90.1-5
		C402.1,527.4,361.7,525.3,312.1,525.3z"/>
	<path class="st38" d="M312.1,525.3c-47.1,0-85.1,2.1-85.1,4.7c0,2.6,38.1,4.7,85.1,4.7s85.1-2.1,85.1-4.7
		C397.2,527.4,359.1,525.3,312.1,525.3z"/>
	<path class="st39" d="M312.1,525.5c-44.5,0-80.4,1.9-80.4,4.5s35.9,4.5,80.4,4.5s80.4-1.9,80.4-4.5S356.3,525.5,312.1,525.5z"/>
	<path class="st40" d="M312.1,525.5c-41.6,0-75.4,1.9-75.4,4.3c0,2.4,33.8,4.3,75.4,4.3c41.6,0,75.4-1.9,75.4-4.3
		S353.7,525.5,312.1,525.5z"/>
	<path class="st41" d="M312.1,525.5c-39,0-70.7,1.7-70.7,3.8s31.7,3.8,70.7,3.8s70.7-1.7,70.7-3.8
		C382.8,527.4,351.1,525.5,312.1,525.5z"/>
	<path class="st42" d="M312.1,525.8c-36.4,0-65.7,1.7-65.7,3.5s29.6,3.5,65.7,3.5c36.4,0,65.7-1.7,65.7-3.5
		C377.8,527.4,348.2,525.8,312.1,525.8z"/>
</g>
<g>
	
		<linearGradient id="SVGID_1_" gradientUnits="userSpaceOnUse" x1="946.3453" y1="1198.7988" x2="-93.4609" y2="158.9927" gradientTransform="matrix(1 0 0 -1 0 740)">
		<stop  offset="0" style="stop-color:#00C5BA"/>
		<stop  offset="0.4052" style="stop-color:#00C3B9"/>
		<stop  offset="0.5512" style="stop-color:#01BCB4"/>
		<stop  offset="0.6552" style="stop-color:#04B1AD"/>
		<stop  offset="0.7394" style="stop-color:#06A0A2"/>
		<stop  offset="0.8115" style="stop-color:#0A8A94"/>
		<stop  offset="0.8753" style="stop-color:#0F6E83"/>
		<stop  offset="0.933" style="stop-color:#154E6E"/>
		<stop  offset="0.9844" style="stop-color:#1B2A57"/>
		<stop  offset="1" style="stop-color:#1D1D4F"/>
	</linearGradient>
	<path class="st43" d="M144.4,288.7c72.1,0,142.1,0,214.1,0c-7.5,15.5-14.6,29.7-21.4,44.1c-1.8,3.8-5,3.3-8,3.3
		c-86.6,0-173.2,0-260.6,0c1.4-8.5,6.1-14.5,9.5-20.9c34.9-66,70.1-131.9,104.9-197.9c3.5-6.7,7.2-9.7,15.2-9.7
		c115.7,0.3,231.5,0.2,347.2,0.2c2.3,0,4.7,0,10.1,0c-11.6,16.5-21.8,31.6-32.6,46c-2.7,3.6-8.2,1.6-12.4,1.6
		c-93.7,0.1-187.4,0.2-281.1-0.2c-9.4,0-14.6,2.6-19.1,11.2C189.2,206.9,167.2,246.7,144.4,288.7z"/>
	
		<linearGradient id="SVGID_2_" gradientUnits="userSpaceOnUse" x1="1016.7596" y1="1128.3844" x2="-23.0465" y2="88.5783" gradientTransform="matrix(1 0 0 -1 0 740)">
		<stop  offset="0" style="stop-color:#00C5BA"/>
		<stop  offset="0.4052" style="stop-color:#00C3B9"/>
		<stop  offset="0.5512" style="stop-color:#01BCB4"/>
		<stop  offset="0.6552" style="stop-color:#04B1AD"/>
		<stop  offset="0.7394" style="stop-color:#06A0A2"/>
		<stop  offset="0.8115" style="stop-color:#0A8A94"/>
		<stop  offset="0.8753" style="stop-color:#0F6E83"/>
		<stop  offset="0.933" style="stop-color:#154E6E"/>
		<stop  offset="0.9844" style="stop-color:#1B2A57"/>
		<stop  offset="1" style="stop-color:#1D1D4F"/>
	</linearGradient>
	<path class="st44" d="M26.9,425.4c10.3-14.9,19.9-28.3,28.9-42c3.7-5.6,8.7-4.3,13.6-4.3c94.5-0.1,189-0.2,283.5,0.2
		c9.2,0,13.8-2.8,18-10.9c21.2-40.3,43.2-80.2,65.7-121.7c-5.4-0.3-9.4-0.6-13.5-0.6c-60.6,0-121.3-0.2-181.9,0.2
		c-10.8,0.1-12.1-2.4-6.8-11.4c6.8-11.5,9.8-27.7,19.6-34c9.3-6,25.1-2,38.1-2c73.2-0.1,146.5,0,220.7,0c-2.2,9.4-7.1,16.4-11,23.8
		c-34.4,65-69,129.8-103.4,194.8c-2.9,5.5-5.5,9.3-13,9.3c-117.7-0.3-235.5-0.2-353.2-0.2C31,426.2,29.9,425.9,26.9,425.4z"/>
	
		<linearGradient id="SVGID_3_" gradientUnits="userSpaceOnUse" x1="849.6524" y1="1295.4917" x2="-190.1537" y2="255.6857" gradientTransform="matrix(1 0 0 -1 0 740)">
		<stop  offset="0" style="stop-color:#00C5BA"/>
		<stop  offset="0.4052" style="stop-color:#00C3B9"/>
		<stop  offset="0.5512" style="stop-color:#01BCB4"/>
		<stop  offset="0.6552" style="stop-color:#04B1AD"/>
		<stop  offset="0.7394" style="stop-color:#06A0A2"/>
		<stop  offset="0.8115" style="stop-color:#0A8A94"/>
		<stop  offset="0.8753" style="stop-color:#0F6E83"/>
		<stop  offset="0.933" style="stop-color:#154E6E"/>
		<stop  offset="0.9844" style="stop-color:#1B2A57"/>
		<stop  offset="1" style="stop-color:#1D1D4F"/>
	</linearGradient>
	<path class="st45" d="M133.9,15.1c89.7,0,179.3,0,269-0.1c-6.2,12.7-12.6,25.3-18.4,38.1c-3,6.7-7.4,8.7-14.6,8.7
		c-64.9-0.3-129.9,0-194.8-0.4c-8.5-0.1-13.3,2.3-17.4,10c-29.2,54.8-59.2,109.2-88.4,163.9c-3.8,7.1-7.9,9.4-15.6,8.4
		c-13.7-1.9-28,1.8-41.2-4.5C53,164.5,93.5,89.8,133.9,15.1z"/>
	
		<linearGradient id="SVGID_4_" gradientUnits="userSpaceOnUse" x1="1112.8605" y1="1032.2836" x2="73.0545" y2="-7.5223" gradientTransform="matrix(1 0 0 -1 0 740)">
		<stop  offset="0" style="stop-color:#00C5BA"/>
		<stop  offset="0.4052" style="stop-color:#00C3B9"/>
		<stop  offset="0.5512" style="stop-color:#01BCB4"/>
		<stop  offset="0.6552" style="stop-color:#04B1AD"/>
		<stop  offset="0.7394" style="stop-color:#06A0A2"/>
		<stop  offset="0.8115" style="stop-color:#0A8A94"/>
		<stop  offset="0.8753" style="stop-color:#0F6E83"/>
		<stop  offset="0.933" style="stop-color:#154E6E"/>
		<stop  offset="0.9844" style="stop-color:#1B2A57"/>
		<stop  offset="1" style="stop-color:#1D1D4F"/>
	</linearGradient>
	<path class="st46" d="M178,519.1c7.2-14.2,14.3-27.3,20.5-40.8c3-6.5,8-5.1,12.9-5.1c64.5-0.1,129.1-0.2,193.6,0.2
		c9.3,0.1,14.6-2.5,19.1-11c28.8-54.1,58.4-107.8,87.4-161.8c3.8-7.1,7.6-10.6,16.2-9.6c10.9,1.3,22,1.3,33,1.1c8-0.1,8.5,2.3,5,8.7
		c-13.9,25.1-27.4,50.4-41,75.6c-24.5,45.3-49,90.5-73.5,135.8c-2.5,4.6-4.4,8.4-11,8.3c-86.2-0.3-172.4-0.2-258.6-0.3
		C180.9,520.3,180.2,519.9,178,519.1z"/>
</g>
</svg>
